<?xml version="1.0" encoding="UTF-8" standalone="no"?>
<!-- Created with Inkscape (http://www.inkscape.org/) -->

<svg
   xmlns:dc="http://purl.org/dc/elements/1.1/"
   xmlns:cc="http://creativecommons.org/ns#"
   xmlns:rdf="http://www.w3.org/1999/02/22-rdf-syntax-ns#"
   xmlns:svg="http://www.w3.org/2000/svg"
   xmlns="http://www.w3.org/2000/svg"
   xmlns:sodipodi="http://sodipodi.sourceforge.net/DTD/sodipodi-0.dtd"
   xmlns:inkscape="http://www.inkscape.org/namespaces/inkscape"
   width="64px"
   height="64px"
   id="svg2985"
   version="1.1"
   inkscape:version="0.48.3.1 r9886"
   sodipodi:docname="Nuevo documento 2">
  <defs
     id="defs2987">
    <inkscape:perspective
       sodipodi:type="inkscape:persp3d"
       inkscape:vp_x="-9.6363636 : -18.909091 : 1"
       inkscape:vp_y="0 : 1000 : 0"
       inkscape:vp_z="168.90909 : 29.818182 : 1"
       inkscape:persp3d-origin="32 : 21.333333 : 1"
       id="perspective2993" />
  </defs>
  <sodipodi:namedview
     id="base"
     pagecolor="#ffffff"
     bordercolor="#666666"
     borderopacity="1.0"
     inkscape:pageopacity="0.0"
     inkscape:pageshadow="2"
     inkscape:zoom="5.5"
     inkscape:cx="67.152289"
     inkscape:cy="32"
     inkscape:current-layer="layer1"
     showgrid="true"
     inkscape:document-units="px"
     inkscape:grid-bbox="true"
     showguides="true"
     inkscape:guide-bbox="true"
     inkscape:window-width="1360"
     inkscape:window-height="744"
     inkscape:window-x="0"
     inkscape:window-y="24"
     inkscape:window-maximized="1" />
  <metadata
     id="metadata2990">
    <rdf:RDF>
      <cc:Work
         rdf:about="">
        <dc:format>image/svg+xml</dc:format>
        <dc:type
           rdf:resource="http://purl.org/dc/dcmitype/StillImage" />
        <dc:title></dc:title>
      </cc:Work>
    </rdf:RDF>
  </metadata>
  <g
     id="layer1"
     inkscape:label="Layer 1"
     inkscape:groupmode="layer">
    <g
       sodipodi:type="inkscape:box3d"
       style="fill:#000000;fill-opacity:1;fill-rule:nonzero;stroke:none"
       id="g2995"
       inkscape:perspectiveID="#perspective2993"
       inkscape:corner0="1.75 : 0.052550969 : 0 : 1"
       inkscape:corner7="0.12558997 : 0.011263069 : 0.25 : 1">
      <path
         sodipodi:type="inkscape:box3dside"
         id="path3007"
         style="fill:#e9e9ff;fill-rule:evenodd;stroke:none"
         inkscape:box3dsidetype="11"
         d="m 19.121212,47.917354 33.959316,-41.3211277 0,30.0146857 -33.959316,25.069075 z" />
      <path
         sodipodi:type="inkscape:box3dside"
         id="path2997"
         style="fill:#353564;fill-rule:evenodd;stroke:none"
         inkscape:box3dsidetype="6"
         d="m 5.5041323,49.166039 0,15.013782 13.6170797,-2.499834 0,-13.762633 z" />
      <path
         sodipodi:type="inkscape:box3dside"
         id="path2999"
         style="fill:#4d4d9f;fill-rule:evenodd;stroke:none"
         inkscape:box3dsidetype="5"
         d="M 5.5041323,49.166039 27.354339,0.46930789 53.080528,6.5962263 19.121212,47.917354 z" />
      <path
         sodipodi:type="inkscape:box3dside"
         id="path3005"
         style="fill:#afafde;fill-rule:evenodd;stroke:none"
         inkscape:box3dsidetype="13"
         d="M 5.5041323,64.179821 27.354339,37.150427 53.080528,36.610912 19.121212,61.679987 z" />
      <path
         sodipodi:type="inkscape:box3dside"
         id="path3003"
         style="fill:#d7d7ff;fill-rule:evenodd;stroke:none"
         inkscape:box3dsidetype="14"
         d="m 27.354339,0.46930789 0,36.68111911 25.726189,-0.539515 0,-30.0146857 z" />
      <path
         sodipodi:type="inkscape:box3dside"
         id="path3001"
         style="fill:#8686bf;fill-rule:evenodd;stroke:none"
         inkscape:box3dsidetype="3"
         d="M 5.5041323,49.166039 27.354339,0.46930789 l 0,36.68111911 -21.8502067,27.029394 z" />
    </g>
    <flowRoot
       xml:space="preserve"
       id="flowRoot3009"
       style="font-size:6px;font-style:normal;font-variant:normal;font-weight:normal;font-stretch:normal;line-height:125%;letter-spacing:0px;word-spacing:0px;fill:#000000;fill-opacity:1;stroke:none;font-family:Ubuntu;-inkscape-font-specification:Ubuntu"><flowRegion
         id="flowRegion3011"><rect
           id="rect3013"
           width="21.454546"
           height="25.454546"
           x="30"
           y="6.5454545" /></flowRegion><flowPara
         id="flowPara3015" /></flowRoot>    <flowRoot
       xml:space="preserve"
       id="flowRoot3017"
       style="font-size:14px;font-style:italic;font-variant:normal;font-weight:bold;font-stretch:normal;text-align:start;line-height:125%;letter-spacing:0px;word-spacing:0px;writing-mode:lr-tb;text-anchor:start;fill:#000000;fill-opacity:1;stroke:none;font-family:Ubuntu;-inkscape-font-specification:Ubuntu Bold Italic"
       transform="matrix(0.48175368,-0.87630667,0.87630667,0.48175368,-27.811794,39.743197)"><flowRegion
         id="flowRegion3019"><rect
           id="rect3021"
           width="55.81818"
           height="19.272728"
           x="5.6363635"
           y="29.818182"
           style="font-size:14px;font-style:italic;font-weight:bold;text-align:start;word-spacing:0px;writing-mode:lr-tb;text-anchor:start;-inkscape-font-specification:Ubuntu Bold Italic" /></flowRegion><flowPara
         id="flowPara3023"
         style="font-size:13px">HTTP</flowPara></flowRoot>    <flowRoot
       xml:space="preserve"
       id="flowRoot3025"
       style="fill:black;stroke:none;stroke-opacity:1;stroke-width:1px;stroke-linejoin:miter;stroke-linecap:butt;fill-opacity:1;font-family:Ubuntu;font-style:normal;font-weight:normal;font-size:6px;line-height:125%;letter-spacing:0px;word-spacing:0px;-inkscape-font-specification:Ubuntu;font-stretch:normal;font-variant:normal"><flowRegion
         id="flowRegion3027"><rect
           id="rect3029"
           width="48"
           height="8.181818"
           x="6.3636365"
           y="32.18182" /></flowRegion><flowPara
         id="flowPara3031"></flowPara></flowRoot>    <flowRoot
       xml:space="preserve"
       id="flowRoot3033"
       style="font-size:6px;font-style:normal;font-variant:normal;font-weight:normal;font-stretch:normal;line-height:125%;letter-spacing:0px;word-spacing:0px;fill:#000000;fill-opacity:1;stroke:none;font-family:Ubuntu;-inkscape-font-specification:Ubuntu"><flowRegion
         id="flowRegion3035"><rect
           id="rect3037"
           width="22.90909"
           height="19.272728"
           x="28.545454"
           y="9.090909" /></flowRegion><flowPara
         id="flowPara3039"
         style="-inkscape-font-specification:Ubuntu Mono Bold Italic;font-family:Ubuntu Mono;font-weight:bold;font-style:italic;font-stretch:normal;font-variant:normal;font-size:14px">DIV</flowPara></flowRoot>    <path
       style="fill:#003380;fill-opacity:1;fill-rule:nonzero;stroke:none"
       d="M 8.4565534,60.59798 C 10.089208,58.579216 15.002729,52.501085 19.375489,47.091024 l 7.950473,-9.836479 7.27e-4,-18.362494 c 3.63e-4,-10.0993734 0.06355,-18.38347027 0.140436,-18.40910515 0.07688,-0.0256349 0.118558,8.16637945 0.09261,18.20447615 l -0.04718,18.251085 0.410812,0.10856 c 0.225946,0.05971 5.925213,-0.01387 12.665038,-0.163511 6.739824,-0.14964 12.277379,-0.24892 12.305677,-0.220623 0.08377,0.08385 -33.370589,24.753125 -33.89643,24.995203 -0.264953,0.121977 -3.222643,0.715971 -6.572643,1.319993 -3.3499999,0.60402 -6.2812627,1.141444 -6.5139171,1.194275 -0.3164464,0.07186 0.3247899,-0.828591 2.5454545,-3.574424 l 0,0 z"
       id="path3047"
       inkscape:connector-curvature="0" />
    <path
       style="fill:#2a7fff;fill-opacity:1;fill-rule:nonzero;stroke:none"
       d="m 5.5159252,56.669518 0,-7.585025 L 16.379562,24.871644 C 23.736285,8.4749938 27.272545,0.78429931 27.334107,1.0475793 c 0.05,0.2138314 0.05,8.4627658 0,18.3309657 l -0.09091,17.94218 -4.090909,5.048173 c -2.25,2.776493 -5.307474,6.549584 -6.794387,8.384644 -1.486913,1.83506 -2.745723,3.294227 -2.797356,3.242594 -0.05163,-0.05163 0.0495,-0.312707 0.224747,-0.580163 l 0.318626,-0.486284 -1.472371,-1.383027 -1.472372,-1.383026 0.740512,-1.317863 0.740513,-1.317864 1.449873,1.309162 c 1.575692,1.422767 1.46731,1.416698 2.153002,0.12056 L 16.592525,48.29708 13.21344,45.230358 C 11.354944,43.543662 9.7831635,42.143931 9.7205952,42.119847 9.6580266,42.095764 9.3900997,42.485558 9.1252019,42.986056 l -0.4816324,0.909997 1.2543597,1.114809 c 0.6898978,0.613143 1.2526648,1.205169 1.2505948,1.315609 -0.0021,0.110442 -0.311354,0.748296 -0.687296,1.417454 L 9.7776979,48.960578 8.4757746,47.784062 7.1738514,46.607544 6.7085247,47.401564 c -0.2559298,0.436712 -0.4653268,0.875443 -0.4653268,0.974958 0,0.155722 2.7886693,2.763383 5.9379571,5.552534 l 0.937957,0.830699 -2.192115,2.70194 c -1.2056633,1.486069 -2.8854796,3.622396 -3.7329255,4.747396 -0.8474458,1.125 -1.5717112,2.045454 -1.6094785,2.045454 -0.037767,0 -0.068668,-3.413261 -0.068668,-7.585027 z M 18.887819,44.165947 c 0.262973,-0.448727 0.450513,-0.893323 0.416755,-0.987989 -0.03376,-0.09466 -1.206831,-1.207854 -2.606831,-2.473754 -1.4,-1.2659 -2.611623,-2.364293 -2.692496,-2.440871 -0.08087,-0.07658 0.143909,-0.668555 0.499515,-1.3155 l 0.646557,-1.176266 -0.408606,-0.358049 c -1.042176,-0.913223 -0.854867,-1.075749 -2.767704,2.40152 l -1.764162,3.207 0.597297,0.616253 c 0.328513,0.33894 0.64261,0.615284 0.697993,0.614096 0.05538,-0.0013 0.369814,-0.492094 0.698734,-1.090909 0.32892,-0.598813 0.626925,-1.088751 0.662233,-1.088751 0.03531,0 1.279828,1.103922 2.7656,2.453162 1.485772,1.349238 2.718409,2.453784 2.739193,2.454546 0.02079,7.27e-4 0.25295,-0.365759 0.515922,-0.814488 l 0,0 z m 3.948096,-7.168872 0.501808,-0.893464 -2.729081,-2.489775 c -1.500994,-1.369374 -2.72908,-2.563927 -2.72908,-2.65456 0,-0.09063 0.257334,-0.620756 0.571854,-1.178054 l 0.571854,-1.013271 -0.656703,-0.656702 c -0.361186,-0.361187 -0.687461,-0.619885 -0.725054,-0.574885 -0.20289,0.242863 -3.398315,6.172743 -3.398315,6.306391 0,0.08725 0.276994,0.427112 0.615542,0.755247 l 0.615543,0.596607 0.608244,-1.106396 c 0.334534,-0.608517 0.650721,-1.104457 0.702639,-1.102089 0.05192,0.0024 1.280759,1.102018 2.730759,2.443665 1.45,1.341647 2.677273,2.444171 2.727273,2.450055 0.05,0.0059 0.316723,-0.391364 0.592717,-0.882769 l 0,0 z m 2.848319,-5.209079 0.440413,-0.830183 -1.102125,-1.102126 -1.102124,-1.102123 0.530698,-1.134079 c 1.086836,-2.322516 0.789204,-4.14455 -0.832245,-5.094781 -1.374501,-0.805513 -2.656053,-0.506749 -3.740602,0.872032 -0.508046,0.645877 -1.495745,2.791071 -1.42222,3.088937 0.06194,0.250912 6.458143,6.132509 6.669074,6.132509 0.06529,0 0.316904,-0.373584 0.559131,-0.830186 l 0,0 z"
       id="path3049"
       inkscape:connector-curvature="0" />
    <path
       style="fill:#0066ff;fill-opacity:1;fill-rule:nonzero;stroke:none"
       d="m 21.527342,26.661232 c -0.919367,-0.823441 -0.961997,-0.899314 -0.742745,-1.321951 0.399401,-0.769904 0.769973,-1.084736 1.276783,-1.084736 1.034956,0 1.435139,1.416936 0.758487,2.685589 l -0.317179,0.594679 -0.975346,-0.873581 z"
       id="path3051"
       inkscape:connector-curvature="0" />
  </g>
</svg>
